<svg xmlns="http://www.w3.org/2000/svg" xmlns:xlink="http://www.w3.org/1999/xlink" width="512" height="659.289" viewBox="0 0 135.467 174.437"><defs><linearGradient xlink:href="#a" id="c" x1="257.605" x2="377.06" y1="131.688" y2="131.688" gradientUnits="userSpaceOnUse"/><linearGradient id="a"><stop offset="0" style="stop-color:#8d5d3a;stop-opacity:1"/><stop offset="1" style="stop-color:#d79b74;stop-opacity:1"/></linearGradient><linearGradient xlink:href="#b" id="j" x1="274.483" x2="393.937" y1="131.688" y2="131.688" gradientUnits="userSpaceOnUse"/><linearGradient id="b"><stop offset="0" style="stop-color:#784e2f;stop-opacity:1"/><stop offset="1" style="stop-color:#452614;stop-opacity:1"/></linearGradient><linearGradient xlink:href="#a" id="d" x1="257.605" x2="377.06" y1="131.688" y2="131.688" gradientUnits="userSpaceOnUse"/><linearGradient xlink:href="#a" id="e" x1="257.605" x2="377.06" y1="131.688" y2="131.688" gradientUnits="userSpaceOnUse"/><linearGradient xlink:href="#a" id="f" x1="257.605" x2="377.06" y1="131.688" y2="131.688" gradientUnits="userSpaceOnUse"/><linearGradient xlink:href="#a" id="g" x1="257.605" x2="377.06" y1="131.688" y2="131.688" gradientUnits="userSpaceOnUse"/><linearGradient xlink:href="#a" id="h" x1="257.605" x2="377.06" y1="131.688" y2="131.688" gradientUnits="userSpaceOnUse"/><linearGradient xlink:href="#a" id="i" x1="257.605" x2="377.06" y1="131.688" y2="131.688" gradientUnits="userSpaceOnUse"/><linearGradient xlink:href="#b" id="k" x1="274.483" x2="393.937" y1="131.688" y2="131.688" gradientUnits="userSpaceOnUse"/><linearGradient xlink:href="#b" id="l" x1="274.483" x2="393.937" y1="131.688" y2="131.688" gradientUnits="userSpaceOnUse"/><linearGradient xlink:href="#b" id="m" x1="274.483" x2="393.937" y1="131.688" y2="131.688" gradientUnits="userSpaceOnUse"/><linearGradient xlink:href="#b" id="n" x1="274.483" x2="393.937" y1="131.688" y2="131.688" gradientUnits="userSpaceOnUse"/><linearGradient xlink:href="#b" id="o" x1="274.483" x2="393.937" y1="131.688" y2="131.688" gradientUnits="userSpaceOnUse"/><linearGradient xlink:href="#b" id="p" x1="274.483" x2="393.937" y1="131.688" y2="131.688" gradientUnits="userSpaceOnUse"/></defs><g style="stroke:url(#c);stroke-opacity:1" transform="matrix(.99365 0 0 .99365 -255.97 -43.634)"><path d="M314.96 218.14v-18.65c0-32.215-15.527-53.086-47.337-56.515" class="cls-2" style="fill:none;stroke:url(#d);stroke-width:2.646;stroke-linecap:round;stroke-linejoin:round;stroke-dasharray:none;stroke-opacity:1"/><path d="M290.874 218.14v-10.884c0-22.265-10.48-36.873-31.946-39.796" class="cls-2" style="fill:none;stroke:url(#e);stroke-width:2.646;stroke-linecap:round;stroke-linejoin:round;stroke-dasharray:none;stroke-opacity:1"/><path d="M290.874 218.14v-23.283c0-52.72 24.3-87.688 74.038-95.779" class="cls-2" style="fill:none;stroke:url(#f);stroke-width:2.646;stroke-linecap:round;stroke-linejoin:round;stroke-dasharray:none;stroke-opacity:1"/><path d="M314.96 218.14v-23.037c0-41.51 19.933-68.455 60.777-73.025" class="cls-2" style="fill:none;stroke:url(#g);stroke-width:2.646;stroke-linecap:round;stroke-linejoin:round;stroke-dasharray:none;stroke-opacity:1"/><path d="M290.943 213.907V76.324" class="cls-3" style="fill:none;stroke:url(#h);stroke-width:1.323;stroke-linecap:round;stroke-linejoin:round;stroke-dasharray:none;stroke-opacity:1"/><path d="M315.02 213.907V44.574" class="cls-3" style="fill:none;stroke:url(#i);stroke-width:1.323;stroke-linecap:round;stroke-linejoin:round;stroke-dasharray:none;stroke-opacity:1"/></g><g style="stroke:url(#j);stroke-opacity:1" transform="matrix(.99365 0 0 .99365 -255.97 -43.634)"><path d="M360.666 218.14v-23.283c0-52.72-24.297-87.688-74.036-95.779" class="cls-1" style="fill:none;stroke:url(#k);stroke-width:2.646;stroke-linecap:round;stroke-linejoin:round;stroke-dasharray:none;stroke-opacity:1"/><path d="M336.584 218.14v-23.037c0-41.51-19.934-68.455-60.778-73.025" class="cls-1" style="fill:none;stroke:url(#l);stroke-width:2.646;stroke-linecap:round;stroke-linejoin:round;stroke-dasharray:none;stroke-opacity:1"/><path d="M336.584 218.14v-18.65c0-32.215 15.525-53.086 47.336-56.515" class="cls-1" style="fill:none;stroke:url(#m);stroke-width:2.646;stroke-linecap:round;stroke-linejoin:round;stroke-dasharray:none;stroke-opacity:1"/><path d="M360.666 218.14v-10.884c0-22.265 10.483-36.873 31.948-39.796" class="cls-1" style="fill:none;stroke:url(#n);stroke-width:2.646;stroke-linecap:round;stroke-linejoin:round;stroke-dasharray:none;stroke-opacity:1"/><path d="M336.716 213.907V44.574" class="cls-4" style="fill:none;stroke:url(#o);stroke-width:1.323;stroke-linecap:round;stroke-linejoin:round;stroke-dasharray:none;stroke-opacity:1"/><path d="M360.793 213.907V76.324" class="cls-4" style="fill:none;stroke:url(#p);stroke-width:1.323;stroke-linecap:round;stroke-linejoin:round;stroke-dasharray:none;stroke-opacity:1"/></g></svg>