<svg xmlns="http://www.w3.org/2000/svg" width="512" height="336.484" viewBox="0 0 135.467 89.028"><defs><clipPath id="a" clipPathUnits="userSpaceOnUse"><rect width="502.219" height="297.689" x="210" y="297" ry="4.652" style="fill:#a26e4a;fill-opacity:1;stroke:#000;stroke-width:2.64599;stroke-linejoin:round"/></clipPath></defs><path d="M400.259 694.983c-.239-.238-.318-3.624-.318-13.61v-13.294l.588-.412c.392-.275 1.187-.412 2.382-.412 1.455 0 1.895.102 2.335.543.38.38.489.717.362 1.124-.249.796-.587.97-1.896.975l-1.125.004v17.502l.728-.048c1.46-.096 1.905.02 2.2.57.219.41.223.736.016 1.192-.247.54-.473.628-1.628.628h-1.342l.08 1.52.078 1.522.926.04c.51.022 1.071.052 1.248.066.56.046.893.987.611 1.729-.25.658-.33.679-2.593.679-1.463 0-2.453-.119-2.652-.318zm15.875 0c-.476-.476-.406-1.14.823-7.715l1.131-6.049-1.134-5.99c-.623-3.294-1.104-6.406-1.07-6.916.06-.862.132-.931 1.04-1.007 1.232-.102 1.335.09 1.951 3.638.264 1.519.538 2.59.61 2.38.07-.209.376-1.63.678-3.159l.548-2.778.975-.08c1.622-.136 1.632.122.288 7.424l-1.203 6.54 1.205 6.42c1.081 5.756 1.166 6.48.824 7.015-.428.667-1.463.792-1.928.232-.166-.199-.522-1.573-.793-3.053-.27-1.48-.545-2.744-.61-2.81-.065-.064-.334 1.042-.598 2.46-.656 3.51-.77 3.766-1.672 3.766-.411 0-.89-.143-1.065-.318zm19.006-.194c-.178-.333-.274-5.092-.274-13.626 0-12.761.015-13.128.53-13.643.401-.402.881-.53 1.992-.53 1.889 0 3.153.542 3.822 1.638.506.83.534 1.317.534 9.435 0 7.268-.062 8.692-.418 9.443-.53 1.116-1.438 1.717-2.698 1.787l-.984.055-.076 2.63c-.042 1.448-.205 2.787-.363 2.977-.442.533-1.747.428-2.065-.166zm3.955-9.097c.127-.318.21-3.946.184-8.062-.05-7.866-.09-8.124-1.238-7.924-.34.06-.406 1.224-.467 8.266-.038 4.507-.01 8.35.063 8.54.185.484 1.156-.061 1.458-.82zm14.61 9.291c-.24-.238-.318-3.684-.318-13.881v-13.564l.573-.306c.798-.428 3.915-.169 4.778.396 1.492.978 1.556 1.455 1.473 10.849-.074 8.24-.1 8.614-.632 9.33-.305.411-.9.926-1.323 1.144-.422.218-.812.42-.865.45-.054.03.588 1.03 1.425 2.226 1.318 1.88 1.49 2.264 1.283 2.857-.176.505-.453.705-1.052.764-.714.07-.949-.1-1.922-1.389-.61-.808-1.17-1.469-1.244-1.469-.074 0-.107.467-.073 1.037.034.57-.095 1.225-.286 1.455-.411.496-1.37.549-1.817.101zm3.598-8.466c.233-.233.317-2.45.317-8.325 0-7.838-.011-8.014-.55-8.302-1.287-.69-1.302-.598-1.302 8.293 0 4.564.08 8.378.177 8.475.28.28 1.012.205 1.358-.141zm14.085 8.272c-.178-.333-.274-5.087-.274-13.611v-13.1l.588-.411c.885-.62 3.93-.562 4.735.09.533.43.583.607.355 1.256-.24.684-.395.763-1.648.836l-1.384.08v17.434h1.27c1.38 0 1.905.328 1.905 1.191s-.524 1.19-1.905 1.19h-1.27v3.176h1.27c1.38 0 1.905.327 1.905 1.19 0 .984-.512 1.19-2.954 1.19-2.022 0-2.354-.065-2.593-.51zm15.442-.388c-.631-.631-.9-1.14-.9-1.71 0-1.387 1.73-1.782 2.392-.547.15.28.51.511.8.511 1.63 0 1.21-4.5-1.077-11.542-2.278-7.016-2.41-11.164-.412-12.998.794-.73 1.135-.86 2.254-.86 1.156 0 1.433.115 2.253.935 1.07 1.07 1.207 2.02.375 2.602-.668.468-1.203.32-2.066-.57l-.642-.662-.483.597c-.972 1.2-.48 4.98 1.404 10.789 1.406 4.335 1.807 6.362 1.813 9.155.007 3.65-1.082 5.197-3.66 5.199-.957 0-1.303-.15-2.05-.899zm16.14 0c-1.052-1.052-1.231-2.344-.388-2.795.757-.405 1.019-.343 1.655.388 1.437 1.652 2.221.215 1.792-3.286-.325-2.66-.432-3.091-1.83-7.395-2.9-8.925-2.38-13.809 1.501-14.104 1.152-.088 2.386.531 2.983 1.497.677 1.097.67 1.596-.028 2.086-.668.468-1.204.32-2.067-.57l-.641-.662-.483.597c-.995 1.228-.512 4.962 1.403 10.856 1.327 4.085 1.82 6.59 1.812 9.218-.01 3.476-1.176 5.07-3.711 5.07-.896 0-1.264-.166-1.998-.9zm-212.83-13.255v-.926h94.455v1.852H290.14zm229.658-.794v-.926h94.456v1.852h-94.456zm119.591-24.088c-2.2-.605-4.953-1.997-6.96-3.519-.99-.75-1.853-1.365-1.92-1.365-.066 0-.31.476-.543 1.058-.477 1.192-.59 1.22-3.189.767l-1.675-.292V636.034l.86.003c.473 0 1.467.075 2.209.165l1.348.162.62 2.15c1.82 6.32 5.378 10.162 9.66 10.437 1.446.093 1.687.031 2.484-.64 1.565-1.316 2.066-3.682 1.178-5.554-.651-1.372-3.215-3.55-5.687-4.83-8.898-4.613-11.87-7.457-13.059-12.5-.528-2.24-.531-7.313-.007-9.379 1.063-4.178 3.583-7.516 6.915-9.156 1.654-.815 2.04-.895 4.718-.979 4.03-.127 6.705.632 10.09 2.863l.824.543.335-1.194.334-1.194h4.694v17.198l-2.183-.019c-1.2-.01-2.41-.108-2.69-.217-.368-.145-.638-.756-.988-2.238-1.253-5.312-3.686-7.835-7.765-8.055-1.607-.087-1.974-.017-2.772.524-2.925 1.985-3.074 5.486-.319 7.485.67.486 2.623 1.442 4.342 2.125 5.401 2.146 9.304 4.923 11.294 8.037.43.672 1.106 2.174 1.504 3.338.635 1.858.737 2.619.835 6.218.084 3.079.008 4.595-.305 6.085-.802 3.81-2.938 6.912-5.765 8.374-1.228.635-1.757.737-4.184.803-1.879.052-3.25-.053-4.233-.324zm-385.98-3.495.101-3.373 1.05-.214c2.3-.467 3.162-.844 3.486-1.522.241-.505.343-4.763.4-16.762l.075-16.085-1.4.116c-3.065.254-4.501 2.577-5.117 8.273-.157 1.455-.303 2.661-.324 2.68-.02.019-1.02.109-2.22.2l-2.183.165v-19.052h32.808v16.864l-.992.164c-.546.09-1.544.165-2.218.167l-1.226.003-.173-1.786c-.23-2.384-.652-4.227-1.232-5.383-.6-1.195-2.194-2.615-2.966-2.641a8.582 8.582 0 0 1-1.115-.124c-.29-.057-.737-.04-.992.038-.434.133-.463 1.085-.462 15.139.001 9.431.103 15.36.273 15.974.336 1.208.808 1.377 3.187 1.138l1.83-.184v6.551l-2.446.333c-1.346.184-5.804.865-9.906 1.514-4.103.65-7.657 1.18-7.9 1.18-.391 0-.428-.364-.338-3.373zm364.613-.995c-2.22-.333-6.18-.877-8.798-1.21l-4.76-.604v-5.988h1.847c1.758 0 1.855-.033 2.016-.673.098-.388-.14-1.993-.56-3.802l-.73-3.13-4.079-.329c-2.243-.18-4.143-.263-4.223-.184-.194.195-1.415 5.386-1.415 6.018 0 .676.931 1.227 2.448 1.448l1.257.183v6.071l-.993-.15a84.617 84.617 0 0 0-2.05-.278c-.582-.07-2.01-.25-3.175-.397-1.164-.147-2.89-.344-3.837-.437a54.236 54.236 0 0 1-2.778-.343l-1.058-.175-.075-2.837-.075-2.837 1.133-.006c1.288-.007 2.063-.513 2.686-1.754.427-.85 2.782-9.682 6.62-24.831l2.146-8.467 5.689.1c3.129.054 5.707.113 5.73.131.023.019 1.54 6.82 3.37 15.115 4.285 19.408 4.8 21.537 5.403 22.344.466.625.89.808 2.761 1.196l.728.15.004 2.575c.003 1.416.075 2.842.163 3.17.2.747.037.745-5.395-.07zm-12.668-22.538c-.099-.392-.741-3.22-1.428-6.284-.687-3.064-1.317-5.392-1.4-5.174-.186.487-2.297 11.12-2.296 11.56 0 .325 1.056.482 3.776.565l1.527.046zM282.995 648.47v-3.175l.728-.003c1.276-.003 2.695-.533 3.04-1.135.257-.45.333-3.918.333-15.192 0-16.75.199-15.483-2.437-15.56l-1.531-.046-.075-3.083-.074-3.083 6.557-.003c3.606 0 7.539-.078 8.74-.171l2.182-.17V612.91l-1.124.25c-1.576.348-1.753 1.018-1.771 6.687l-.015 4.59 4.167-.186c2.292-.102 4.266-.276 4.387-.388.12-.112.18-2.43.132-5.151-.098-5.535-.156-5.698-2.028-5.698h-.914l.169-1.786c.092-.983.17-2.352.17-3.043l.002-1.257h17.198v5.821h-1.426c-1.01 0-1.608.148-2.05.506l-.625.505-.077 13.487c-.09 15.57-.271 14.478 2.373 14.287l1.54-.111v2.86c0 1.574-.03 2.862-.066 2.862-.037 0-3.222.36-7.078.802-3.856.44-7.695.874-8.532.963l-1.521.162v-5.875l1.07-.289c.697-.187 1.146-.49 1.29-.87.12-.32.307-3.189.415-6.376l.196-5.793-1.949.166c-1.071.092-3.05.246-4.396.342l-2.447.175v5.766c0 3.17.116 6.07.258 6.444.218.573.423.679 1.323.679h1.065v3.042c0 2.247-.087 3.049-.331 3.065-.182.012-.629.067-.992.122-2.07.313-15.043 1.973-15.423 1.973-.402 0-.452-.355-.452-3.175zm301.096-.948c-.612-.142-11.345-1.218-23.415-2.345-.728-.068-2.127-.203-3.11-.299l-1.785-.174v-5.23l1.521-.004c.837-.003 1.673-.1 1.857-.217.787-.5.867-2.106.687-13.891-.209-13.7-.029-12.824-2.681-13.064l-1.649-.15v-5.218h18.786l.003 1.786c.003.982.074 2.218.161 2.745l.159.96-1.752.111c-2.853.182-2.633-1.042-2.565 14.28.033 7.314.106 13.373.163 13.465.121.196 2.835.387 4.806.339 3.202-.079 4.307-1.99 4.995-8.643l.16-1.548 2.205.093c1.212.05 2.263.152 2.336.225.072.072.171 3.912.22 8.533.095 8.96.151 8.538-1.102 8.246zm-260.64-.752c-.059-.059-.07-1.35-.024-2.872l.082-2.766 1.505-.155c2.312-.238 2.34-.309 2.555-6.325.1-2.805.143-8.698.095-13.095-.1-9.184.002-8.81-2.454-9.014l-1.469-.122v-5.491h32.809l-.001 3.109c0 1.71-.079 4.805-.174 6.879l-.172 3.77-2.407-.003-2.406-.003-.577-2.383c-.968-3.997-2.21-5.378-5.27-5.854-1.684-.263-7.086-.227-7.33.048-.06.07-.184 2.418-.274 5.22l-.163 5.093h1.061c1.736 0 2.84-.616 3.428-1.909.283-.624.52-1.67.524-2.325.015-1.76.176-1.89 2.224-1.799l1.778.08-.023 8.451c-.012 4.648-.049 8.475-.081 8.504-.033.028-.909.106-1.947.171l-1.888.12-.18-2.061c-.278-3.19-1.425-4.399-3.943-4.154l-.832.08-.072 6.042-.07 6.042.732-.14c.403-.078 1.804-.21 3.114-.295 5.83-.376 7.25-.973 8.352-3.506.593-1.362 1.305-4.698 1.305-6.114 0-.949.07-1.05.827-1.201.455-.091 1.645-.166 2.646-.166h1.819l-.002 5.49c-.001 3.02-.076 6.446-.167 7.613l-.166 2.124-7.44.608c-7.41.606-22.456 2.019-24.266 2.278-.523.075-1 .09-1.058.031zm209.118-2.797c-4.949-.698-8.03-2.152-11.217-5.293-1.883-1.856-2.468-2.642-3.351-4.498-1.513-3.18-2.038-5.737-2.038-9.922 0-4.196.52-6.669 2.048-9.733 2.09-4.19 6.194-7.27 11.047-8.288 2.869-.602 8.713-.384 11.245.419 6.297 1.997 10.338 7.095 11.528 14.546.41 2.56.321 7.873-.17 10.25-1.314 6.361-5.098 10.68-10.623 12.127-1.903.498-6.28.7-8.47.392zm3.144-5.564c2.421-.673 3.778-3.678 4.207-9.317.491-6.448-.425-13.2-2.126-15.673-1.697-2.466-5.363-2.78-7.314-.627-1.841 2.032-2.666 6.663-2.392 13.436.315 7.775 1.719 11.226 4.939 12.141 1.234.35 1.549.355 2.686.04zm-158.261 1.51v-2.51l1.568-.182c2.69-.312 2.52.51 2.61-12.627.09-13.316.213-12.643-2.316-12.643h-1.566l-.082-.992c-.045-.546-.042-1.677.008-2.514l.09-1.521h15.464l5.54 11.291 5.54 11.291.228-7.058c.223-6.861.133-9.433-.356-10.225-.16-.26-.848-.42-2.106-.49l-1.868-.106V606.93h13.759v4.762h-1.273c-2.478 0-2.289-1.186-2.374 14.903l-.075 14.152-2.703.15c-1.487.082-3.91.2-5.383.262l-2.68.113-5.944-12.025-5.943-12.025-.17 8.546c-.093 4.7-.077 8.962.035 9.47.26 1.175 1.124 1.659 2.631 1.474l1.125-.139v4.97l-2.183.15c-1.2.084-3.374.217-4.829.296-1.455.08-3.568.212-4.696.293l-2.05.147v-2.51zm126.14 1.45-8.665-.4v-4.904l1.118-.082c1.68-.122 1.803-.542 1.725-5.902l-.065-4.498-4.3-.073-4.3-.072.005 4.438c.004 5.206.134 5.643 1.786 6.01l1.12.25v4.688l-8.4-.167c-4.62-.092-8.55-.214-8.731-.27-.232-.072-.331-.803-.331-2.45v-2.347l1.593-.015c.876-.008 1.759-.152 1.961-.32.649-.539.744-2.788.544-12.9-.156-7.934-.269-9.97-.566-10.267-.203-.204-1.082-.451-1.951-.55l-1.581-.179v-4.694h4.588c2.523 0 6.393.078 8.599.174l4.01.173v4.68h-.91c-1.54 0-1.735.572-1.735 5.086v3.91h8.808l-.143-4.023c-.132-3.745-.183-4.055-.729-4.498-.322-.26-.93-.475-1.35-.475h-.765V606.93h17.198v4.699l-1.623.117c-1.206.087-1.72.249-1.997.627-.311.425-.36 2.428-.295 11.975.09 13.098-.136 12.03 2.61 12.35l1.57.182v2.487c0 1.368-.03 2.469-.067 2.445-.036-.023-3.965-.222-8.731-.443zm-49.014-.337c-4.953-.301-7.74-1.435-10.593-4.312-3.044-3.068-4.252-6.18-4.529-11.666-.325-6.463 1.22-11.223 4.812-14.815 1.645-1.645 3.191-2.608 5.648-3.521 1.418-.527 2.407-.676 5.19-.78 3.766-.143 5.608.168 8.301 1.4.782.358 1.455.65 1.496.65.04 0 .199-.357.35-.793l.277-.794H470.86l-.071 6.813-.07 6.813-2.79.074-2.79.075-.342-1.659c-.49-2.368-1.494-4.683-2.485-5.725-2.759-2.904-7.184-2.37-8.952 1.078-1.08 2.105-1.4 4.296-1.4 9.596 0 6.74.706 9.616 2.79 11.37 1.16.976 1.94 1.242 3.708 1.264 3.743.047 6.643-2.999 7.28-7.647l.157-1.15h4.956v1.148c0 1.625-.934 5.075-1.75 6.469-2.702 4.609-7.316 6.551-14.522 6.112zm-37.703-2.811v-2.39l1.719-.11c.945-.06 1.868-.258 2.05-.44.253-.252.35-2.953.406-11.332.088-12.894.209-12.257-2.33-12.257h-1.58V606.665h18.52v4.689l-1.622.148c-2.657.24-2.479-.629-2.479 12.093 0 8.532.076 11.166.331 11.421.183.183 1.105.381 2.051.441l1.719.11v4.7l-1.786.003c-.982.003-5.209.08-9.393.172l-7.606.17v-2.39zm93.265-47.877c-1.31-.04-6.905-.25-12.435-.468-5.53-.216-12.257-.458-14.95-.535-2.691-.078-6.56-.2-8.598-.27-2.037-.072-5.847-.19-8.467-.265-2.62-.075-6.489-.194-8.599-.265-2.11-.07-5.86-.191-8.334-.268-13.518-.419-49.86-1.533-68.66-2.104-27.561-.837-30.031-.914-34.66-1.073-2.11-.073-7.765-.247-12.568-.388-4.802-.142-10.695-.32-13.096-.396-2.402-.077-6.39-.2-8.864-.275a10227.041 10227.041 0 0 0-25.797-.783 15093.538 15093.538 0 0 1-26.59-.803c-10.701-.326-14.19-.504-15.743-.804a6.945 6.945 0 0 0-.728-.097c-.182-.01-.33-.193-.33-.404 0-.954 1.418-1.02 27.595-1.284l25.611-.259-.166-.822c-.939-4.653-1.517-6.663-2.45-8.52-.58-1.151-1.199-2.569-1.378-3.15-.19-.62-.402-3.667-.51-7.338-.102-3.453-.25-6.343-.33-6.423-.08-.08-1.68.04-3.555.268-1.876.227-3.887.469-4.469.537-26.706 3.13-28.033 3.256-29.898 2.847-.75-.165-1.08-.384-1.134-.753-.071-.488.728-.653 12.7-2.61a18908.3 18908.3 0 0 0 16.216-2.658l3.44-.568.067-17.118c.052-12.923-.008-17.117-.24-17.117-.437 0-14.659 2.632-24.566 4.547-6.763 1.307-8.996 1.634-11.84 1.737-3.399.123-3.506.11-3.506-.415 0-.298.208-.601.463-.674.255-.073 22.847-5.387 50.205-11.809 27.358-6.421 49.95-11.736 50.204-11.81.424-.121.463.147.46 3.126l-.003 3.26-1.826.738c-2.91 1.178-2.783.704-2.88 10.769-.091 9.363-.084 9.318-1.619 9.655-.396.087-1.009.048-1.361-.086-.62-.236-.684-.526-1.94-8.808-.713-4.71-1.41-8.79-1.55-9.064-.475-.94-5.198-.175-5.932.96-.119.184-.275 4.54-.348 9.682-.125 8.865-.159 9.367-.646 9.723-.582.426-1.424.48-1.979.13-.273-.174-.692-2.786-1.536-9.581-.639-5.138-1.184-9.366-1.212-9.394-.077-.077-5.222.9-6.118 1.162-.497.146-.95.566-1.265 1.172-.448.863-.491 1.685-.493 9.383-.002 9.634-.015 9.705-1.757 9.833-1.326.097-1.073 1.114-2.323-9.341-1.115-9.324-1.112-9.306-1.595-9.491-.674-.259-4.855.657-5.753 1.26-1.305.877-1.454 1.925-1.495 10.53-.038 8.146-.225 9.475-1.332 9.475-.281 0-.569-.095-.64-.21-.072-.116-.511-4.432-.977-9.592-.466-5.16-.869-9.408-.895-9.442-.07-.09-4.602.705-5.764 1.01-.55.145-1.137.52-1.323.846-.259.452-.353 4.387-.411 17.19-.075 16.588-.075 16.602.467 16.602.52 0 4.184-.585 33.343-5.326 7.203-1.171 15.835-2.567 19.182-3.103l6.086-.974.064-27.18c.04-16.927-.029-27.182-.185-27.182-.137 0-21.596 5.184-47.686 11.519-44.006 10.685-47.461 11.485-47.772 11.06-.29-.396-.22-.53.515-.995.804-.51 17.794-5.494 63.181-18.537 10.987-3.158 20.989-6.136 22.225-6.618 3.756-1.466 5.966-1.854 10.451-1.833 3.021.014 4.609.155 6.647.592 4.14.889 6.188 1.598 7.024 2.435l.75.749v14.37l.727-.148c2.733-.557 33.484-4.946 33.801-4.825.716.275.416.848-.738 1.408-1.09.53-19.35 6.368-28.102 8.986-3.188.954-4.413 1.443-4.961 1.982l-.728.717v22.53h.573c.315 0 5.285-.482 11.046-1.07 20.026-2.047 22.907-2.32 23.106-2.198.11.068.2.328.2.576 0 .306-.491.641-1.521 1.037-1.507.58-10.48 3.046-24.276 6.672-3.929 1.032-7.475 2.01-7.881 2.17-1.207.48-1.485 1.522-1.073 4.017l.168 1.018 1.483-.168c6.72-.76 35.991-5.027 36.437-5.311.307-.197.635-.737.728-1.202.222-1.11.217-41.678-.007-58.972l-.176-13.565-1.346.175c-1.82.236-3.143.918-3.363 1.733-.098.364-.19 3.91-.205 7.88-.027 7.388-.155 8.438-1.128 9.245-.215.178-2.347.75-4.738 1.272-8.68 1.893-21.728 4.622-22.095 4.622-.316 0-.376-1.313-.376-8.334 0-6.49-.073-8.336-.33-8.339-.182-.002-1.432.26-2.778.581l-2.448.586-.008 3.586-.008 3.586-.572-.794c-1.69-2.342-3.893-3.71-7.16-4.443-.988-.222-2.07-.583-2.403-.802-.69-.452-4.267-4.38-4.107-4.51.057-.047 11.236-3.096 24.842-6.777 13.606-3.68 25.334-6.915 26.062-7.188.727-.272 1.594-.705 1.925-.962.511-.396.551-.535.264-.925-.314-.426-2.135-.035-26.002 5.588-21.215 4.998-25.703 5.981-25.887 5.67-.123-.206-.182-.405-.132-.442 1.573-1.166 2.228-1.516 3.662-1.957.946-.29 7.732-2.496 15.081-4.902 20.164-6.6 33.852-10.813 40.93-12.6 15.15-3.822 32.387-2.08 46.784 4.727 3.125 1.478 4.097 2.433 4.097 4.028 0 1.846-.177 1.968-3.43 2.355l-2.92.347v7.5l2.844-.479a548.23 548.23 0 0 0 3.77-.644c.812-.146.664.005-1.19 1.216-6.17 4.03-11.577 9.42-15.296 15.246-1.08 1.691-2.564 4.395-2.564 4.67 0 .185 6.572-1.672 14.805-4.184 24.372-7.437 28.286-8.642 29.298-9.017 1.522-.563 2.53-1.68 3.403-3.769.406-.973 1.679-3.66 2.828-5.97 1.884-3.786 2.03-4.185 1.477-4.046-2.384.596-21.312 4.675-21.696 4.675-1.378 0 .168-.61 6.596-2.605 3.893-1.207 7.537-2.39 8.099-2.626 1.925-.813 1.865-.373 1.786-12.987-.039-6.204-.091-11.295-.116-11.314-.025-.018-1.413.305-3.084.72-2.102.52-3.966 1.214-6.046 2.249l-3.007 1.495-.678-.678c-1.847-1.847.42-5.346 4.832-7.458 2.382-1.14 4.199-1.456 8.383-1.456h3.391v-1.954c0-2.322.082-2.27-3.65-2.276-3.577-.005-8.248 1.129-11.432 2.775-1.029.532-1.001.216.107-1.235 1.785-2.338 4.924-3.946 8.697-4.457 1.052-.142 2.589-.349 3.415-.459l1.503-.2-.72-1.058c-1.086-1.592-2.671-2.358-4.882-2.358-1.807 0-1.81 0-1.64-.673.094-.37.227-2.22.294-4.112.068-1.892.183-3.824.257-4.292.282-1.789 2.167-3.059 3.895-2.625.714.18 1.431 1.531 1.671 3.15.313 2.113 1.18 5.587 1.487 5.956.169.204 1.266.852 2.438 1.44 4.568 2.295 9.902 5.766 10.458 6.806.396.74-.316 1.338-1.59 1.338-1.313 0-1.196.37.532 1.688 3.536 2.697 4.234 7.05 1.41 8.795-2.908 1.796-3.483 2.263-3.756 3.047-.307.88-.431 15.575-.132 15.575.587 0 5.337-1.433 19.287-5.816 8.731-2.744 17.444-5.477 19.362-6.074 2.857-.89 3.61-1.232 4.167-1.894l.68-.809v-25.846l-1.765-.19c-4.777-.511-10.088.95-12.087 3.325-.92 1.094-1.213 2.277-1.37 5.554-.26 5.368-.442 8.236-.52 8.153-.042-.046-.385-1.767-.761-3.824-1.505-8.228-2.029-9.167-10.133-18.171l-3.29-3.656 1.006-.813c4.441-3.59 9.83-6.119 15.774-7.404 2.297-.497 3.535-.585 8.384-.593 5.809-.01 7.926.206 13.697 1.395 1.349.277 2.51.41 2.582.295.07-.115.202-.74.29-1.389.195-1.415-.218-2.805-1.165-3.931-1.507-1.791-9.576-4.98-15.007-5.931-3.173-.556-9.409-.628-12.303-.142-4.59.77-9.898 2.445-13.48 4.254l-1.653.834.746-1.37c1.235-2.27 3.667-4.251 7.615-6.204 8.168-4.04 15.084-5.233 26.934-4.644 3.491.173 6.399.264 6.462.2.064-.063-.849-1.022-2.027-2.131-4.577-4.305-10.374-5.916-18.512-5.143l-1.984.189 2.38-1.17c5.723-2.807 12.243-3.38 18.125-1.59 1.237.377 2.487.756 2.778.844.43.13.38 0-.265-.693-3.605-3.87-11.206-5.608-18.49-4.23-1.821.344-1.882.32-1.037-.39 2.033-1.711 5.132-2.609 11.177-3.238 2.264-.236 4.287-.477 4.494-.537.657-.188-1.774-2.371-3.52-3.161-2.984-1.348-7.34-1.135-11.136.544-4.544 2.01-8.012 5.313-11.65 11.1-.173.275-.389.342-.621.193-.288-.185-.174-.813.6-3.292.526-1.685 1.311-3.855 1.745-4.822.434-.967.79-1.992.79-2.276 0-1.997-4.011-5.243-8.335-6.745-1.934-.672-2.444-.735-5.916-.734h-3.799l.624-.515c1.035-.855 4.394-2.3 6.27-2.698 4.972-1.054 10.654.255 16.026 3.691.846.541 1.592.93 1.658.863.294-.295-.528-2.323-1.48-3.653-3.635-5.077-12.37-7.775-18.807-5.81-3.512 1.072-5.423 2.257-8.351 5.177-1.464 1.461-3.117 3.398-3.672 4.304-.556.907-1.118 1.581-1.25 1.5-.133-.082-.17-.824-.083-1.649.283-2.668-1.145-4.196-5.482-5.869-3.797-1.464-6.467-1.916-10.398-1.76-3.892.153-5.628.555-8.792 2.031-2.298 1.073-5.652 3.262-6.69 4.367-.875.932-1.088.818-.672-.36 1.444-4.093 4.391-7.137 9.038-9.334 2.973-1.406 5.939-2.084 9.92-2.267 4.977-.23 9.243.524 13.76 2.429l2.208.931.63-.63c.82-.82.653-1.317-1.162-3.456-3.606-4.251-8.748-7.3-14.345-8.508-2.731-.59-8.132-.587-11.436.007-9.337 1.675-17.156 7.151-20.9 14.636-1.713 3.425-2.411 6.258-2.578 10.452-.079 2-.251 3.638-.382 3.638s-.68-.224-1.22-.498c-1.632-.828-5.88-2.085-8.078-2.39-8.583-1.192-16.75 1.56-22.418 7.552-5.21 5.508-7.406 12.692-6.523 21.343l.21 2.062-1.062-.542c-3.863-1.971-8.874-1.731-13.71.656-2.594 1.28-4.656 3.103-9.422 8.33l-2.051 2.248.122-2.193c.1-1.799.286-2.537 1.032-4.101 2.448-5.132 8.7-9.205 17.593-11.465l2.977-.757v-1.673c0-2.793-.492-3.215-4.093-3.514-7.731-.643-15.578 2.113-21.142 7.424-4.571 4.365-6.872 8.416-8.717 15.35-.773 2.907-.81 3.282-.806 8.205.004 5.49.215 6.714 1.917 11.113l.562 1.455-1.397-1.5c-4.707-5.053-7.096-15.532-5.625-24.675 1.296-8.052 5.865-15.832 12.021-20.471 6.09-4.59 13.24-6.709 22.71-6.73l4.824-.012.533-1.424c1.374-3.673 3.558-7.056 6.598-10.22 7.43-7.733 18.093-11.603 27.936-10.141 1.601.237 3.645.655 4.543.928l1.632.497.855-2.417c2.135-6.035 5.928-11.55 10.418-15.15 4.793-3.841 9.929-6.06 16.548-7.146 3.359-.55 9.26-.554 12.346-.006 7.98 1.417 14.5 5.911 19.334 13.327 1.808 2.774 1.757 2.758 6.291 1.936 2.264-.41 5.85-.303 8.606.259 7.2 1.467 12.703 5.579 15.837 11.832 1.059 2.112 1.71 2.452 5.241 2.735 7.397.592 13.245 3.892 16.947 9.562 4.014 6.149 4.689 14.846 1.656 21.329-.43.918-1.023 2.008-1.317 2.422-.295.413-.536.934-.536 1.157 0 .223.972 1.574 2.16 3.002 3.008 3.616 3.244 4.226 3.05 7.876-.32 6.023-1.713 9.015-6.383 13.71-3.595 3.613-4.846 5.35-6.123 8.496-1.446 3.564-1.806 6.18-1.534 11.143.25 4.579.267 16.987.022 17.231-.224.224-31.774 7.106-39.875 8.697-8.156 1.603-10.527 2.57-13.821 5.636-1.612 1.5-7.61 9.383-7.61 10 0 .338.167.405.728.291.63-.127 10.006-2.947 39.348-11.834 3.778-1.144 6.913-2.038 6.965-1.986.152.152-2.268 10.136-2.645 10.918-.189.39-.708.92-1.155 1.18-.45.263-7.572 1.951-16.007 3.795-30.997 6.774-29.775 6.468-31.166 7.803-.987.948-1.422 2.321-1.563 4.943l-.132 2.435 24.498-6.17 24.499-6.17.137 1.09c.226 1.798.758 10.491.648 10.59-.056.05-9.805 1.723-21.665 3.72-11.86 1.995-30.97 5.215-42.466 7.154-11.496 1.94-29.782 5.023-40.635 6.853-10.854 1.83-20.099 3.4-20.545 3.49-.677.135-.842.066-.995-.415-.1-.318-.141-.618-.09-.669.05-.05 5.746-1.546 12.657-3.322 6.912-1.777 12.646-3.355 12.743-3.507.203-.317.308-9.443.108-9.443-.072 0-3.534.714-7.693 1.587s-7.663 1.588-7.787 1.588c-.124 0-.295-.179-.378-.396-.236-.615 1.223-1.22 7.636-3.163 8.582-2.6 8.656-2.645 10.385-6.099 1.438-2.875 5.67-12.608 5.538-12.74-.21-.21-6.159.674-9.428 1.401-9.14 2.033-15.604 5.369-21.203 10.943-2.516 2.504-4.289 4.897-4.961 6.694-.887 2.37-1.631 7.634-1.803 12.752-.14 4.158.267 15.66.564 15.957.059.06 2.882-.388 6.274-.994s9.441-1.687 13.443-2.404c4.002-.716 14.956-2.668 24.342-4.338s27.789-4.946 40.895-7.282c13.106-2.335 23.911-4.246 24.01-4.246.1 0 .182 2.977.182 6.615 0 3.638.09 6.616.199 6.619.692.015 24.31-3.036 24.457-3.16.1-.083-.105-1.276-.454-2.65-.94-3.693-1.279-7.269-1.094-11.525.138-3.175.89-8.343 1.269-8.722.066-.066.521 1.453 1.012 3.375 1.761 6.89 3.862 12.184 6.374 16.063 1.49 2.299 4.223 5.517 5.859 6.896 1.213 1.023 5.239 3.24 5.471 3.013.054-.053-.52-.786-1.278-1.63-.757-.842-2.204-2.765-3.215-4.27-4.365-6.501-7.036-14.158-7.926-22.72-.478-4.6-.192-14.487.537-18.573 1.692-9.488 5.403-17.102 11.424-23.44l1.833-1.93-1.332-.184-1.331-.183v-9.752c0-10.302.129-11.768 1.202-13.636.768-1.338 2.51-2.939 3.788-3.48 3.497-1.485 8.912-2.35 11.995-1.917 2.454.344 5.374 1.704 6.788 3.161 1.75 1.804 1.824 2.299 2.01 13.6.123 7.468.255 10.236.52 10.87.195.467 1.026 1.435 1.846 2.15 3.137 2.74 6.646 7.478 8.663 11.699 4.834 10.113 6.332 25.482 3.673 37.67-1.358 6.223-4.531 13.132-8.504 18.514-.714.966-1.43 2.138-1.593 2.604-.254.73-.222.92.227 1.368.477.478 1.021.535 6.384.679l5.863.156.006 1.216c.003.668.178 3.12.39 5.449.21 2.328.388 4.471.394 4.762.03 1.3.098 1.315 7.035 1.455l6.522.133 9.032 18.025c4.968 9.914 9.203 18.227 9.41 18.472.934 1.104 1.835 1.293 5.908 1.234l3.903-.057.264.693c.145.381.263 1.689.263 2.906 0 3.647 2.096 3.31-20.549 3.31-21.41 0-20.625-.066-21.422 1.77-.24.554-1.018 2.244-1.73 3.756-.71 1.512-1.256 2.785-1.212 2.83.044.043 12.4.191 27.458.328 22.684.207 27.636.316 28.889.64 3.683.952 3.748 2.302.159 3.26-1.437.384-6.605.934-13.445 1.43l-5.688.413c-1.662.12-28.235 1.338-51.726 2.37-4.875.215-10.173.45-11.774.523-1.6.073-4.399.193-6.218.268l-6.614.272c-31.646 1.3-41.96 1.556-51.197 1.272zm-179.52-10.987c0-.176-.55-2.132-1.223-4.347-.973-3.206-1.381-4.179-2.002-4.772l-.779-.747h-9.742l-.7.7c-.498.498-.994 1.676-1.729 4.1-.566 1.872-1.103 3.849-1.192 4.395l-.163.992h8.765c6.687 0 8.765-.076 8.765-.32zm195.528.163c0-.087-.527-1.128-1.171-2.315-.644-1.186-1.368-2.931-1.61-3.877-.745-2.918-1.761-3.977-3.807-3.965-1.508.008-1.85.47-3.889 5.245-1.077 2.524-1.959 4.697-1.959 4.829 0 .138 2.657.24 6.218.24 3.42 0 6.218-.07 6.218-.157zm-165.387-6.36c-.998-3.44-1.872-6.312-1.942-6.382-.229-.229-6.865-.603-7.04-.397-.093.11-.862 2.938-1.708 6.285s-1.592 6.235-1.659 6.417c-.095.259 1.42.33 7.022.33h7.143zm23.57 6.092c0-.264-2.502-4.86-2.646-4.86-.144 0-2.646 4.596-2.646 4.86 0 .089 1.19.161 2.646.161 1.455 0 2.646-.072 2.646-.161zm65.155-.17a500.981 500.981 0 0 1-3.047-4.115l-2.784-3.785-2.561 3.746c-1.409 2.06-2.625 3.912-2.703 4.116-.119.31.794.37 5.608.37 4.562 0 5.695-.069 5.487-.331zm32.675-.793a558.314 558.314 0 0 1-1.797-3.175c-.634-1.128-1.219-2.047-1.299-2.042-.08.005-.757.809-1.505 1.786-.747.978-1.858 2.402-2.47 3.166l-1.11 1.39h8.826zm72.496.794c-.066-.182-.69-2.058-1.385-4.168-.695-2.11-1.456-4.055-1.69-4.324-.775-.887-1.334-1.043-2.053-.572-.711.466-1.05 1.16-3.007 6.153l-1.27 3.241h4.763c3.7 0 4.737-.074 4.642-.33zm26.013-.265c-.743-1.899-2.24-5.2-2.682-5.917-.284-.458-.874-.982-1.312-1.164-.981-.406-2.773-.197-3.433.4-.373.338-2.91 6.586-2.91 7.165 0 .061 2.378.111 5.285.111h5.285zm-154.403-.977c.442-.177.333-.266-.661-.535-3.47-.94-6.281-3.408-7.928-6.96-2.692-5.807-4.039-17.404-2.818-24.26.8-4.493 2.504-8.773 5.08-12.768.707-1.096 1.039-1.843.867-1.95-.335-.206-.23-.319-3.803 4.06-1.574 1.928-2.9 3.468-2.945 3.423-.098-.098 1.696-4.772 2.547-6.637.782-1.713 2.45-3.484 4.094-4.35 1.156-.608 1.653-.701 3.726-.703 2.265-.002 2.472.046 3.929.923 3.895 2.346 7.222 7.328 9.42 14.106.322.992.63 1.757.687 1.701.323-.323-1.4-7.418-2.657-10.931-1.688-4.724-5.41-9.255-8.587-10.455-2.027-.765-4.62-.611-6.59.391-1.86.948-5.314 4.281-6.915 6.674-3.125 4.673-5.106 12.658-5.113 20.607-.005 5.838.95 11.432 2.879 16.857 1.787 5.03 5.459 9.369 8.947 10.575 1.405.485 4.867.623 5.841.232zm-123.97-1.048c.888-.63 2.322-2.765 2.65-3.946.149-.536.271-1.67.272-2.522l.002-1.547-.88.754c-.484.414-1.287 1.32-1.786 2.011-.498.692-1.19 1.45-1.539 1.684-.792.534-2.238.525-3.543-.023l-1.002-.42.569 1.132c.875 1.741 1.818 2.87 2.725 3.263.919.397 1.568.299 2.532-.386zm161.3.542c-.077-.124-.887-.497-1.801-.828-2.123-.77-4.206-2.146-5.259-3.475-.454-.574-1.164-1.218-1.578-1.432-.849-.439-3.308-.526-3.555-.126-.22.357 1.172 2.332 2.474 3.508 1.3 1.173 2.247 1.679 4.068 2.169 1.517.409 5.878.55 5.651.184zm-125.608-1.2c.833-.749 1.68-2.47 2.552-5.188 1.584-4.939 1.073-11.56-1.256-16.272-.481-.973-1.652-2.217-2.109-2.24-.105-.005.21.795.7 1.777 1.952 3.915 2.257 9.076.822 13.957-1.37 4.665-2.957 5.621-5.887 3.547l-1.116-.79.363 1.028c1.533 4.345 3.896 6.011 5.93 4.182zm161.001-1.461c-.498-1.152-1.08-3.008-1.294-4.125-.806-4.214-.178-11.96 1.19-14.684 1.088-2.165 2.106-2.949 4.494-3.461.735-.158 1.336-.387 1.336-.509 0-.423-2.182-2.087-2.962-2.259-2.93-.643-5.75 2.377-7.066 7.568-1.404 5.537-.694 12.398 1.667 16.108.613.963 3.137 3.455 3.499 3.455.023 0-.366-.942-.864-2.093zm32.847.401c-1.71-4.545-2.45-9.705-2.008-14.032.512-5.021 2.146-9.941 3.622-10.908.523-.343 1.236-.487 2.408-.487.916 0 1.666-.043 1.666-.094 0-.456-1.843-2.232-2.793-2.691-2.388-1.156-4.008-.167-5.804 3.544-3.342 6.905-3.5 13.847-.485 21.378.78 1.952 1.17 2.55 2.383 3.658.797.728 1.494 1.325 1.549 1.325.054 0-.188-.762-.538-1.693zm-162.508 1.26c.091-.091-.232-.632-.72-1.202-1.115-1.303-2.37-3.879-2.815-5.774-.452-1.926-.396-6.01.115-8.421.435-2.055 1.479-4.595 2.228-5.424.641-.71 2.115-1.406 3.44-1.626.962-.16 1.086-.25.81-.58-.524-.633-2.257-1.411-3.14-1.411-1.844 0-3.146 1.285-4.483 4.427-2.252 5.293-2.217 10.648.103 15.5 1.029 2.152 1.157 2.323 2.777 3.69 1.204 1.016 1.396 1.11 1.685.822zm20.91-.536c.096-.097-.116-.556-.47-1.022-2.904-3.806-3.954-9.364-2.813-14.883.642-3.105 1.37-5.115 2.286-6.32.785-1.032 2.623-1.771 4.062-1.634l1.07.102-.837-.863c-1.188-1.226-2.814-1.806-3.981-1.42-1.65.544-2.859 2.273-4.136 5.914-1.122 3.2-1.499 6.355-1.108 9.29.61 4.585 2.05 8.051 4.086 9.831 1.391 1.218 1.544 1.301 1.84 1.005zm30.757-7.922c.646-.307 1.097-.839 1.627-1.918.637-1.297.734-1.809.734-3.876 0-2.797-.55-4.53-1.76-5.549-2.334-1.964-4.798.727-4.836 5.285-.01 1.164.135 2.617.32 3.229.477 1.576 1.793 3.03 2.929 3.236.05.01.494-.174.986-.407zm39.023-.379c1.539-.824 2.323-5.32 1.45-8.32-.501-1.727-1.831-3.313-2.777-3.313-1.64 0-2.913 1.651-3.448 4.476-.469 2.468.395 6.013 1.753 7.198.896.781 1.501.773 3.022-.041zM334.06 563.86v-2.324l-6.152.449a2228.1 2228.1 0 0 0-8.003.595c-1.019.08-5.96.454-10.98.83l-9.129.686-.727.784c-.4.43-.728.9-.728 1.044 0 .168 6.32.26 17.86.26h17.859zm118.004-2.174v-3.704h-25.4v7.408h25.4zm-147.63-2.847c-.355-1.586-1.216-2.752-2.392-3.24-.444-.183-.843-.288-.886-.232-.043.056.704 1.47 1.66 3.144 1.421 2.485 1.757 2.922 1.835 2.381.052-.363-.046-1.287-.217-2.053zm174.736-9.562c7.211-6.607 13.113-12.084 13.116-12.171.003-.087-.614-1.797-1.369-3.799l-1.373-3.64-2.137 2.058c-1.176 1.132-6.781 6.512-12.456 11.956-5.676 5.444-10.482 10.195-10.682 10.558-.323.587-.266 1.02.519 3.924.485 1.796.97 3.234 1.077 3.196.107-.038 6.095-5.475 13.305-12.082zm85.901 9.631c-.03-1.164-.225-5.86-.432-10.436s-.325-8.371-.263-8.434c.356-.355.927.444 1.978 2.767a585.02 585.02 0 0 0 2.54 5.52c.748 1.6 2.35 5.053 3.56 7.673 2.408 5.21 2.514 5.393 2.906 5 .176-.176-.409-3.424-1.752-9.73-1.313-6.169-1.925-9.558-1.757-9.727.169-.168 2.775 3.09 7.479 9.348 3.97 5.284 7.38 9.78 7.576 9.992.239.258.444.298.622.12s-1.182-3.363-4.11-9.626c-3.99-8.537-4.338-9.397-3.955-9.777.382-.38.564-.264 2.05 1.303 5.053 5.33 17.944 18.173 18.058 17.989.074-.12-1.377-2.578-3.223-5.465-7.42-11.6-7.03-10.937-6.432-10.937.147 0 6 3.756 13.005 8.347 8.113 5.317 12.886 8.29 13.146 8.19.485-.186.641-.03-14.778-14.833-6.184-5.938-11.284-10.894-11.333-11.013-.048-.118.053-.216.225-.216.373 0 20.498-3.125 21.36-3.317 2.545-.566-1.805-.651-33.028-.651-26.782 0-33.602.067-33.514.33.108.323 4.685 1.703 7.612 2.295 3.26.66 4.069 1.761 5.656 7.708 1.583 5.93 5.164 17.911 5.673 18.978.235.493.582.837.8.794.306-.06.375-.516.331-2.192zm-138.874-4.3c.225-.254.903-1.452 1.507-2.66l1.098-2.2-1.532-2.623c-.842-1.442-1.591-2.624-1.664-2.625-.073 0-.522.883-.999 1.965-1.615 3.665-1.725 6.452-.312 7.865.857.858 1.33.927 1.902.279zm24.443-.003c.197-.13.348-2.242.448-6.28.164-6.548.542-9.194 1.894-13.239.799-2.39 2.657-6.032 3.842-7.527.908-1.147.93-1.219.434-1.41-.231-.088-1.392 1.145-3.212 3.412-1.568 1.953-2.95 3.55-3.074 3.55-.435 0 2.449-6.838 3.642-8.636 2.23-3.358 6.651-4.639 10.357-3 2.351 1.04 7.065 6.932 8.76 10.95.405.96.832 1.836.949 1.944.379.352-.092-3.334-.677-5.299-1.14-3.834-3.982-8.526-6.54-10.802-1.961-1.744-3.776-2.478-6.142-2.483-2.933-.006-4.93 1.033-8.076 4.202-1.9 1.914-2.642 2.898-3.613 4.79-2.045 3.987-3.56 9.743-4.207 15.987-.287 2.773-.203 11.444.125 12.853.068.29.133.678.144.86.022.367 4.41.48 4.946.128zm170.758-.47c0-.08-1.795-2.822-3.989-6.095-4.868-7.264-5.022-7.396-8.565-7.371-4.167.03-4.353-.28 4.26 7.082 6.719 5.741 8.294 6.953 8.294 6.383zm-158.33-4.3c1.98-1.663 3.01-3.174 3.012-4.42.003-.976-1.043-3.264-1.797-3.935-.787-.7-1.812-.386-2.292.7-.208.47-.561 2.472-.787 4.451-.47 4.137-.493 4.736-.185 4.736.124 0 1.045-.689 2.049-1.532zm58.582-9.325c6.184-.144 11.742-.333 12.351-.418 1.194-.169 1.666-.739.934-1.13-1.64-.876-3.54-1.057-14.08-1.338-11.967-.32-14.816-.583-14.816-1.37 0-.273.1-.497.223-.497.336 0 23.926-5.006 23.976-5.088.023-.04.44-3.107.925-6.818.486-3.711.943-6.91 1.016-7.108.108-.291-.17-.33-1.427-.195-.86.092-7.217.76-14.13 1.485-6.912.725-13.33 1.497-14.261 1.715-2.95.692-4.075 1.997-5.07 5.886-.691 2.705-.675 5.831.043 8.177 1.166 3.81 3.068 6.336 5.223 6.937.549.153 2.46.217 4.408.147 1.892-.067 8.5-.24 14.685-.385zm75.305-13.385c1.688-.8 2.074-1.698 2.174-5.062.107-3.592-.344-4.881-2.043-5.836l-1.028-.578H542.63l-.875.595c-1.576 1.073-1.931 1.81-2.06 4.278-.168 3.176.084 4.488 1.074 5.617.455.518 1.072 1.041 1.371 1.162.3.121 12.551.228 27.227.237 24.093.015 26.77-.025 27.588-.413zm-38.352-.844c-1.118-1.235-.595-3.344.662-2.67.402.214.51.481.425 1.057-.162 1.102.52 1.002 1-.147.59-1.412.517-1.767-.296-1.457-.967.367-1.12.334-1.847-.392-.535-.535-.65-.91-.65-2.13 0-1.572.497-2.87 1.203-3.141.908-.349 2.007-.155 2.624.463 1.64 1.639 1.602 6.403-.064 8.17-.831.88-2.37 1.005-3.057.247zm2.073-6.156c0-1.098-.093-1.434-.397-1.434-.417 0-.711 1.922-.414 2.699.336.874.81.133.81-1.265zm7.586 6.024c-.675-.72-.81-2.832-.212-3.329.871-.722 1.835.684 1.236 1.804-.242.452-.218.589.127.721.643.247.982-.266 1.11-1.677.149-1.629-.393-2.51-1.229-2-1.131.69-1.343.46-1.339-1.455.006-2.903-.042-2.845 2.392-2.866 1.156-.01 2.103.03 2.103.086 0 .28-.666 1.297-1.036 1.58-.23.178-.866.327-1.412.331-.715.006-.992.123-.992.418 0 .323.192.373.918.236 2.492-.467 3.768 3.97 1.729 6.01-.986.985-2.541 1.05-3.395.14zm11.331.348c-.218-.14-.783-.185-1.256-.099-.843.154-.86.138-.86-.811 0-1.159.51-2.215 1.716-3.55 1.076-1.19 1.353-2.103.847-2.793-.642-.877-1.2-.368-1.05.96.225 1.99-1.219 2.414-1.644.48-.188-.86.43-2.553 1.126-3.082 1.365-1.036 3.735.25 3.798 2.061.075 2.179-.312 2.86-2.152 3.793-.725.368-1.318.696-1.318.73 0 .034.591.08 1.313.101 1.079.033 1.342-.05 1.473-.463.088-.276.33-.502.539-.502.528 0 .504 2.085-.033 2.851-.44.63-1.76.8-2.499.324zm-34.628-1.776c-2.398-1.181-2.536-4.869-.226-6.068 1.122-.582 2.805-.567 3.721.034 2.188 1.433 1.897 5.112-.482 6.106-1.174.49-1.907.473-3.013-.072zm45.853-.049a3.275 3.275 0 0 1-1.447-4.71c.736-1.206 1.703-1.754 3.063-1.733 2.182.033 3.49 1.619 3.232 3.917-.153 1.356-.736 2.143-1.975 2.667-1.114.472-1.575.449-2.873-.14zm-12.645-25.585c.684-.233 1.722-.739 2.307-1.125l1.062-.702-1.966-.196c-4.749-.474-7.782-3.43-9.983-9.726-2.207-6.314-2.405-12.805-.608-19.92 1.308-5.18 3.131-7.936 6.27-9.482 1.567-.771 1.83-.82 3.894-.711 2.572.135 3.88.757 6.202 2.951.766.724 1.447 1.26 1.513 1.194.067-.067-.44-1.122-1.127-2.345-1.457-2.594-3.648-4.945-5.386-5.777-2.593-1.243-5.786-1.247-8.217-.012-2.206 1.12-5.22 5.03-6.73 8.728-1.09 2.672-2.159 7.303-2.517 10.911-.812 8.193 1.528 16.445 6.363 22.435 3.092 3.83 5.617 4.9 8.923 3.777zm-120.587-7.407c26.151-6.607 27.338-6.923 28.077-7.473.553-.412.703-.817.891-2.412.253-2.138.01-5.305-.406-5.305-.149 0-7.193 1.498-15.656 3.33-30.05 6.502-29.142 6.274-29.768 7.452-.246.464-1.691 6.202-2.032 8.07-.128.706-.087.992.145.992.179 0 8.616-2.094 18.749-4.654zm123.141-8.377c-.3-.327-.886-1.25-1.302-2.05-.675-1.301-.755-1.722-.756-3.969 0-2.351.06-2.639.952-4.46l.954-1.947-.925.15c-1.444.235-2.829 1.308-3.525 2.734-.504 1.03-.624 1.704-.627 3.523-.004 2.506.365 3.847 1.393 5.069.846 1.006 1.97 1.522 3.344 1.535l1.038.01-.546-.595zm-196.925-1.793c3.42-.73 6.426-1.393 6.68-1.472.416-.129.463-.576.463-4.36 0-2.318-.034-4.215-.077-4.215s-3.223-.357-7.066-.793c-3.844-.437-7.083-.794-7.199-.794-.115 0-.21 2.979-.21 6.62v6.619l.596-.139c.327-.076 3.393-.736 6.813-1.466zm32.81-12.865c2.905-1.993 6.604-3.38 11.198-4.197 1.431-.255 2.642-.596 2.69-.759.05-.162.163-1.575.252-3.14l.162-2.844h-19.066v15.439l1.787-1.842c.983-1.012 2.322-2.208 2.976-2.657zm33.015-7.963-.076-2.316-5.755-.07-5.755-.072v4.773h11.663zm125.075-24.825c2.538-1.204 4.236-6.716 3.583-11.627-.409-3.071-1.173-5.011-2.548-6.466-.988-1.046-1.259-1.19-2.184-1.166-1.956.051-3.393 1.752-4.443 5.256-.707 2.362-.662 6.834.095 9.26.74 2.377 1.87 4.145 3.008 4.705 1.12.552 1.397.557 2.49.038zM244.895 564.502c0-.861.053-.911 1.125-1.067.618-.09 7.137-.88 14.486-1.757 7.349-.877 16.276-1.945 19.839-2.372 3.572-.43 6.578-.677 6.703-.552.339.338.808 4.094.61 4.883-.095.379-.493.898-.885 1.155-.661.433-2.154.471-21.294.54l-20.584.074zm-10.053-58.377c-.268-.501-.122-.62 1.905-1.545 3.162-1.443 3.568-1.578 23.494-7.82 39.24-12.292 49.195-15.407 58.87-18.425 5.53-1.725 12.555-3.93 15.61-4.9 4.307-1.367 6.04-1.794 7.704-1.899l2.147-.135 1.072.968c1.286 1.162 1.85 2.44 1.164 2.64-4.487 1.318-31.548 9.278-34.835 10.247-17.794 5.245-52.605 14.95-69.194 19.29-4.002 1.047-7.36 1.953-7.461 2.013-.102.06-.316-.136-.476-.434zm85.024-59c-.603-.127-1.7-.537-2.438-.91-2.787-1.413-4.297-3.694-5.019-7.585l-.226-1.215 1.987 1.426c3.8 2.726 7.258 4.275 10.817 4.845.988.158 2.081.348 2.428.42l.632.133-.756.789c-1.642 1.714-4.89 2.632-7.425 2.097zm12.826-9.351c-3.06-1.285-5.383-3.627-6.474-6.527-.933-2.482-.528-6.823.9-9.642l.394-.779.72 1.97c2.004 5.476 5.427 9.99 10.285 13.56l1.679 1.235-.753.314c-.414.174-1.765.356-3.002.407-1.904.077-2.479-.005-3.749-.538zm18.037-5.188c-5.7-1.744-10.848-9.35-10.848-16.024 0-1.593.683-4.851 1.346-6.422.526-1.247 2.626-4.558 2.89-4.558.077 0 .095.896.041 1.992-.227 4.608.984 10.387 3.112 14.844 1.436 3.007 2.726 5.001 5.206 8.048.93 1.144 1.692 2.145 1.692 2.224 0 .212-2.67.132-3.44-.104zm11.416-8.24c-4.26-2.13-7.58-6.973-9.336-13.622-.55-2.079-.622-2.922-.6-6.994.022-4.125.101-4.918.727-7.27 1.41-5.296 4.436-10.163 7.93-12.755 1.41-1.048 4.15-2.525 4.349-2.347.036.032-.715 1.227-1.67 2.654-2.226 3.33-3.363 5.605-4.5 9.005-2.84 8.484-1.995 16.862 2.666 26.456.92 1.891 1.986 3.945 2.371 4.564.644 1.034.66 1.124.198 1.124-.276 0-1.237-.367-2.135-.816zm135.008-40.75c-.932-1.03-4.899-3.485-7.307-4.524-6.35-2.737-13.41-2.992-20.426-.736-1.311.422-2.436.714-2.5.65-.215-.215 1.346-2.333 2.62-3.554 3.025-2.901 6.453-4.255 11.231-4.437 8.546-.325 14.125 3.31 16.447 10.718.378 1.206.632 2.249.564 2.317-.069.068-.351-.127-.629-.433zm-38.597-9.271c-7.487-6.39-16.178-8.405-26.044-6.042-1.222.293-2.28.475-2.35.404-.186-.186 1.403-1.963 2.81-3.143 1.646-1.381 3.051-2.171 5.362-3.016 1.788-.653 2.286-.715 5.793-.716 3.476-.002 4.025.064 5.846.702 5.066 1.774 8.362 4.764 9.722 8.819.503 1.5.82 3.926.55 4.197-.07.07-.83-.473-1.69-1.205zm50.928-.388c-5.11-6.789-11.865-10.571-20.445-11.449-1.354-.138-3.202-.232-4.108-.208-.906.023-1.646-.031-1.646-.122 0-.341 2.371-2.333 3.405-2.86 3.51-1.79 10.15-1.774 14.405.036 6.3 2.68 10.016 7.495 9.945 12.886-.015 1.105-.106 2.294-.204 2.643-.167.595-.248.54-1.352-.926z" clip-path="url(#a)" style="fill:#bca687;fill-opacity:1;stroke-width:.264583" transform="translate(-74.873 -100.655) scale(.31896)"/></svg>